<?xml version="1.0" encoding="utf-8"?>
<!-- Generator: Adobe Illustrator 24.0.1, SVG Export Plug-In . SVG Version: 6.00 Build 0)  -->
<svg version="1.1" xmlns="http://www.w3.org/2000/svg" xmlns:xlink="http://www.w3.org/1999/xlink" x="0px" y="0px"
	 viewBox="0 0 698.92 128.56" style="enable-background:new 0 0 698.92 128.56;" xml:space="preserve">
<style type="text/css">
	.st0{fill:#240F66;}
	.st1{fill:#9000FF;}
	.st2{fill:#5200B8;}
	.st3{fill:#FFFFFF;}
	.st4{fill:#FFDEFF;}
	.st5{display:none;}
	.st6{display:inline;opacity:0.6;}
</style>
<g id="Layer_1">
	<g>
		<path class="st1" d="M101.96,12.49l-3.34,19.27H68.46l-14.58,84.28h-24.4l14.65-84.28H14.47l3.41-19.27L101.96,12.49 M101.96,7.49
			H17.89c-2.43,0-4.5,1.74-4.92,4.13L9.55,30.89c-0.26,1.46,0.14,2.95,1.09,4.08s2.35,1.79,3.83,1.79h23.71l-13.62,78.43
			c-0.25,1.45,0.15,2.95,1.1,4.07c0.95,1.13,2.35,1.78,3.83,1.78h24.4c2.43,0,4.51-1.75,4.93-4.15l13.86-80.13h25.95
			c2.43,0,4.51-1.75,4.93-4.15l3.34-19.27c0.25-1.45-0.15-2.94-1.1-4.07C104.83,8.14,103.43,7.49,101.96,7.49L101.96,7.49z
			 M101.96,17.49L101.96,17.49L101.96,17.49L101.96,17.49z"/>
		<path class="st1" d="M173.1,12.49l19.13,103.56h-25.32l-2.49-19.42h-33.07l-9.18,19.42H95.36l54.83-103.56H173.1 M173.1,7.49
			h-22.9c-1.85,0-3.55,1.02-4.42,2.66L90.94,113.71c-0.82,1.55-0.77,3.42,0.14,4.92c0.9,1.5,2.53,2.42,4.28,2.42h26.81
			c1.93,0,3.69-1.12,4.52-2.86l7.82-16.55h25.51l1.93,15.05c0.32,2.5,2.44,4.36,4.96,4.36h25.32c1.49,0,2.89-0.66,3.84-1.8
			s1.34-2.65,1.07-4.11L178.01,11.58C177.58,9.21,175.51,7.49,173.1,7.49L173.1,7.49z"/>
		<path class="st1" d="M157.38,41.72l4.55,35.7h-21.48L157.38,41.72 M157.38,37.52c-1.6,0-3.09,0.92-3.79,2.4l-16.93,35.7
			c-0.62,1.3-0.52,2.83,0.25,4.04c0.77,1.22,2.11,1.95,3.55,1.95h21.48c1.21,0,2.35-0.52,3.15-1.42c0.8-0.91,1.17-2.11,1.01-3.31
			l-4.55-35.7c-0.24-1.85-1.66-3.32-3.51-3.62C157.82,37.54,157.6,37.52,157.38,37.52L157.38,37.52z"/>
		<path class="st1" d="M320.05,12.49L320.05,12.49 M320.05,12.49l-42.96,46.87l23.83,56.69h-27.81l-14.05-36.87
			c0,0-0.21-0.63-0.65-0.73c-0.51-0.12-1.03,0.42-1.03,0.42l-10.7,10.04c0,0-0.61,0.53-0.74,0.78c-0.17,0.33-0.28,1.2-0.28,1.2
			l-4.41,25.17h-24.32l17.91-103.57h24.4l-6.32,36.14c-0.15,0.82-0.08,1.78,1.21,2.35c1.39,0.61,2.4-0.35,2.81-0.81l4.65-5.66
			l26.89-32.01L320.05,12.49 M259.24,12.49L259.24,12.49 M320.06,7.49L320.06,7.49h-31.58c-1.48,0-2.88,0.65-3.83,1.78l-24.96,29.72
			l4.45-25.46c0.07-0.34,0.11-0.69,0.11-1.04c0-2.76-2.24-5-5-5h-0.01h-24.4c-2.43,0-4.51,1.75-4.93,4.15L211.99,115.2
			c-0.25,1.45,0.15,2.94,1.1,4.07c0.95,1.13,2.35,1.78,3.83,1.78h24.32c2.43,0,4.51-1.74,4.92-4.14l4.34-24.74l6.01-5.63l11.93,31.3
			c0.74,1.94,2.6,3.22,4.67,3.22h27.81c1.67,0,3.24-0.84,4.16-2.23c0.93-1.39,1.09-3.16,0.44-4.7l-22.59-53.73l40.73-44.44
			c0.86-0.9,1.38-2.11,1.38-3.45C325.05,9.73,322.82,7.49,320.06,7.49L320.06,7.49z M320.05,17.49L320.05,17.49L320.05,17.49
			L320.05,17.49z"/>
		<path class="st1" d="M417.68,12.49L417.68,12.49 M417.68,12.49l-3.34,19.27h-42.96l-4.13,23.83h39.05l-3.34,19.2h-39.05
			l-7.18,41.25H332.4l17.92-103.55H417.68 M417.68,7.49L417.68,7.49h-67.36c-2.43,0-4.51,1.75-4.93,4.15L327.47,115.2
			c-0.25,1.45,0.15,2.94,1.1,4.07s2.35,1.78,3.83,1.78h24.32c2.43,0,4.51-1.75,4.93-4.14l6.46-37.11h34.84
			c2.43,0,4.51-1.75,4.93-4.14l3.34-19.2c0.25-1.45-0.15-2.95-1.1-4.08c-0.95-1.13-2.35-1.78-3.83-1.78h-33.11l2.39-13.83h38.75
			c2.43,0,4.51-1.75,4.93-4.15l3.31-19.09c0.07-0.33,0.11-0.68,0.11-1.03C422.68,9.73,420.45,7.49,417.68,7.49L417.68,7.49z
			 M417.68,17.49L417.68,17.49L417.68,17.49L417.68,17.49z"/>
		<path class="st1" d="M471.04,12.49l-14.65,84.35h42.18l-3.34,19.2h-66.5l17.92-103.55H471.04 M498.57,96.84L498.57,96.84
			 M471.04,7.49h-24.4c-2.43,0-4.51,1.75-4.93,4.15L423.8,115.2c-0.25,1.45,0.15,2.94,1.1,4.07s2.35,1.78,3.83,1.78h66.5
			c2.43,0,4.51-1.75,4.93-4.14l3.31-19.02c0.07-0.33,0.11-0.68,0.11-1.04c0-2.76-2.24-5-5-5h-0.01h-36.23l13.63-78.5
			c0.25-1.45-0.15-2.95-1.1-4.07S472.52,7.49,471.04,7.49L471.04,7.49z M471.04,17.49L471.04,17.49L471.04,17.49L471.04,17.49z"/>
		<path class="st1" d="M565.29,12.49l-17.92,103.56h-24.32l17.99-103.56H565.29 M565.29,7.49h-24.25c-2.43,0-4.51,1.75-4.93,4.14
			l-18,103.56c-0.25,1.45,0.15,2.95,1.1,4.07c0.95,1.13,2.35,1.78,3.83,1.78h24.32c2.43,0,4.51-1.75,4.93-4.15l17.92-103.56
			c0.25-1.45-0.15-2.94-1.1-4.07C568.16,8.14,566.76,7.49,565.29,7.49L565.29,7.49z M565.29,17.49L565.29,17.49L565.29,17.49
			L565.29,17.49z"/>
		<path class="st1" d="M684.45,12.49L684.45,12.49 M684.45,12.49L647.6,64.84l20.27,51.21h-26.96l-9.74-29.88
			c0,0-0.47-1.72-2.1-1.81c-1.69-0.09-2.51,1.4-2.51,1.4l-19.37,30.29h-29.09l37.7-53.2l-19.63-50.36h26.67l9.32,29.19
			c0,0,0.42,1.66,2.04,1.8c1.72,0.15,2.56-1.4,2.56-1.4l18.78-29.59H684.45 M684.45,7.49L684.45,7.49h-28.88
			c-1.71,0-3.3,0.88-4.22,2.32l-16.03,25.26l-7.7-24.1c-0.66-2.07-2.59-3.48-4.76-3.48h-26.67c-1.65,0-3.2,0.82-4.13,2.18
			s-1.13,3.1-0.53,4.64l18.65,47.85l-36.14,51c-1.08,1.53-1.22,3.53-0.36,5.19s2.57,2.7,4.44,2.7h29.09c1.71,0,3.29-0.87,4.21-2.31
			l16.64-26.02l8.11,24.88c0.67,2.06,2.59,3.45,4.75,3.45h26.96c1.66,0,3.2-0.82,4.14-2.19c0.93-1.37,1.12-3.11,0.51-4.65
			l-19.28-48.7l35.22-50.04c0.62-0.83,0.99-1.86,0.99-2.98C689.45,9.73,687.21,7.49,684.45,7.49L684.45,7.49z M684.45,17.49
			L684.45,17.49L684.45,17.49L684.45,17.49z"/>
	</g>
</g>
<g id="Layer_2" class="st5">
</g>
</svg>
